<svg width="44" height="44" viewBox="0 0 44 44" fill="none" xmlns="http://www.w3.org/2000/svg">
<rect x="0.5" y="0.5" width="43" height="43" rx="21.5" fill="#1A1A1A"/>
<rect x="0.5" y="0.5" width="43" height="43" rx="21.5" stroke="#262626"/>
<path fill-rule="evenodd" clip-rule="evenodd" d="M13.6001 22C13.6001 21.5029 14.003 21.1 14.5001 21.1L27.2656 21.1L22.2763 16.3487C21.918 16.0042 21.9068 15.4345 22.2513 15.0762C22.5959 14.7179 23.1656 14.7067 23.5239 15.0512L30.1239 21.3512C30.3004 21.5209 30.4001 21.7552 30.4001 22C30.4001 22.2448 30.3004 22.4791 30.1239 22.6487L23.5239 28.9487C23.1656 29.2933 22.5959 29.2821 22.2513 28.9238C21.9068 28.5655 21.918 27.9958 22.2763 27.6512L27.2656 22.9L14.5001 22.9C14.003 22.9 13.6001 22.4971 13.6001 22Z" fill="white"/>
</svg>
