<svg width="44" height="44" viewBox="0 0 44 44" fill="none" xmlns="http://www.w3.org/2000/svg">
<rect x="0.5" y="0.5" width="43" height="43" rx="21.5" stroke="#262626"/>
<path fill-rule="evenodd" clip-rule="evenodd" d="M30.3999 22C30.3999 22.4971 29.997 22.9 29.4999 22.9L16.7344 22.9L21.7237 27.6513C22.082 27.9958 22.0932 28.5655 21.7487 28.9238C21.4041 29.2821 20.8344 29.2933 20.4761 28.9488L13.8761 22.6488C13.6996 22.4791 13.5999 22.2448 13.5999 22C13.5999 21.7552 13.6996 21.5209 13.8761 21.3513L20.4761 15.0513C20.8344 14.7067 21.4041 14.7179 21.7487 15.0762C22.0932 15.4345 22.082 16.0042 21.7237 16.3488L16.7344 21.1L29.4999 21.1C29.997 21.1 30.3999 21.5029 30.3999 22Z" fill="white"/>
</svg>
