<svg width="10" height="10" viewBox="0 0 24 25" fill="none" xmlns="http://www.w3.org/2000/svg">
<g clip-path="url(#clip0_5_1066)">
<path d="M11.1026 4.18558C12.4994 4.18431 13.8653 4.59736 15.0273 5.37248C16.1894 6.1476 17.0955 7.24997 17.6309 8.54013C18.1663 9.83029 18.3071 11.2503 18.0354 12.6204C17.7636 13.9906 17.0916 15.2494 16.1044 16.2376C15.1171 17.2258 13.8589 17.8989 12.489 18.1719C11.1191 18.4449 9.69894 18.3054 8.40829 17.7712C7.11764 17.2369 6.01445 16.3319 5.23826 15.1705C4.46208 14.0092 4.04778 12.6437 4.04778 11.2468C4.05625 9.37779 4.80203 7.58763 6.12305 6.2654C7.44406 4.94318 9.23355 4.19576 11.1026 4.18558ZM11.1026 2.86362C9.44453 2.86362 7.82372 3.35528 6.44511 4.27644C5.0665 5.1976 3.992 6.50688 3.3575 8.03871C2.72299 9.57054 2.55698 11.2561 2.88045 12.8823C3.20391 14.5085 4.00234 16.0022 5.17475 17.1746C6.34716 18.3471 7.84091 19.1455 9.46709 19.4689C11.0933 19.7924 12.7789 19.6264 14.3107 18.9919C15.8425 18.3574 17.1518 17.2829 18.073 15.9043C18.9941 14.5257 19.4858 12.9049 19.4858 11.2468C19.4858 9.02346 18.6025 6.89116 17.0304 5.319C15.4582 3.74685 13.3259 2.86362 11.1026 2.86362Z" fill="#616161"/>
<path d="M23.1422 22.3965L18.3896 17.6116L17.4739 18.5209L22.2265 23.3058C22.2862 23.3659 22.3572 23.4137 22.4353 23.4464C22.5135 23.4791 22.5974 23.496 22.6821 23.4963C22.7668 23.4966 22.8508 23.4802 22.9292 23.4481C23.0076 23.416 23.0789 23.3687 23.139 23.309C23.1991 23.2493 23.2469 23.1783 23.2796 23.1001C23.3123 23.022 23.3293 22.9381 23.3296 22.8534C23.3299 22.7687 23.3135 22.6847 23.2813 22.6063C23.2492 22.5279 23.2019 22.4566 23.1422 22.3965Z" fill="#616161"/>
</g>
<defs>
<clipPath id="clip0_5_1066">
<rect width="23.215" height="23.215" fill="white" transform="translate(0.572021 0.928955)"/>
</clipPath>
</defs>
</svg>
