<svg width="25" height="25" viewBox="0 0 25 25" fill="none" xmlns="http://www.w3.org/2000/svg">
<path d="M12.5782 16.4057C15.0932 16.4057 17.0923 14.4066 17.0923 11.8917V6.73278C17.0923 4.21782 15.0932 2.21875 12.5782 2.21875C10.0633 2.21875 8.06421 4.21782 8.06421 6.73278V11.8917C8.06421 14.4066 10.0633 16.4057 12.5782 16.4057ZM9.35393 6.73278C9.35393 4.92717 10.7726 3.50847 12.5782 3.50847C14.3839 3.50847 15.8026 4.92717 15.8026 6.73278V11.8917C15.8026 13.6973 14.3839 15.116 12.5782 15.116C10.7726 15.116 9.35393 13.6973 9.35393 11.8917V6.73278Z" fill="#616161"/>
<path d="M20.3167 11.8917H19.0269C19.0269 15.4385 16.1251 18.3403 12.5783 18.3403C9.03157 18.3403 6.12969 15.4385 6.12969 11.8917H4.83997C4.83997 15.9544 7.9353 19.2432 11.9334 19.5656V21.5647H9.99886C9.61194 21.5647 9.354 21.8226 9.354 22.2095C9.354 22.5964 9.61194 22.8544 9.99886 22.8544H15.1578C15.5447 22.8544 15.8026 22.5964 15.8026 22.2095C15.8026 21.8226 15.5447 21.5647 15.1578 21.5647H13.2232V19.5656C17.2213 19.2432 20.3167 15.9544 20.3167 11.8917Z" fill="#616161"/>
</svg>
