<svg width="18" height="23" viewBox="0 0 18 23" fill="none" xmlns="http://www.w3.org/2000/svg">
<path d="M17.7499 22.5893H15.645V20.4844C15.645 19.6471 15.3123 18.844 14.7202 18.2519C14.1281 17.6598 13.3251 17.3271 12.4877 17.3271H6.17307C5.3357 17.3271 4.53262 17.6598 3.94051 18.2519C3.3484 18.844 3.01576 19.6471 3.01576 20.4844V22.5893H0.910889V20.4844C0.910889 19.0888 1.4653 17.7504 2.45215 16.7635C3.439 15.7767 4.77745 15.2223 6.17307 15.2223H12.4877C13.8833 15.2223 15.2218 15.7767 16.2086 16.7635C17.1955 17.7504 17.7499 19.0888 17.7499 20.4844V22.5893ZM9.33037 13.1174C8.50113 13.1174 7.68 12.9541 6.91388 12.6367C6.14775 12.3194 5.45163 11.8542 4.86527 11.2679C4.2789 10.6815 3.81377 9.9854 3.49643 9.21927C3.17909 8.45315 3.01576 7.63202 3.01576 6.80277C3.01576 5.97353 3.17909 5.1524 3.49643 4.38628C3.81377 3.62015 4.2789 2.92403 4.86527 2.33767C5.45163 1.7513 6.14775 1.28617 6.91388 0.968831C7.68 0.651491 8.50113 0.488159 9.33037 0.488159C11.0051 0.488159 12.6113 1.15345 13.7955 2.33767C14.9797 3.52189 15.645 5.12803 15.645 6.80277C15.645 8.47751 14.9797 10.0837 13.7955 11.2679C12.6113 12.4521 11.0051 13.1174 9.33037 13.1174V13.1174ZM9.33037 11.0125C10.4469 11.0125 11.5176 10.569 12.3071 9.77951C13.0966 8.99003 13.5401 7.91927 13.5401 6.80277C13.5401 5.68628 13.0966 4.61552 12.3071 3.82604C11.5176 3.03656 10.4469 2.59303 9.33037 2.59303C8.21388 2.59303 7.14312 3.03656 6.35364 3.82604C5.56416 4.61552 5.12063 5.68628 5.12063 6.80277C5.12063 7.91927 5.56416 8.99003 6.35364 9.77951C7.14312 10.569 8.21388 11.0125 9.33037 11.0125V11.0125Z" fill="white" />
</svg>
