<svg width="20" height="21" viewBox="0 0 20 21" fill="none" xmlns="http://www.w3.org/2000/svg">
<g opacity="0.45">
<path d="M15.833 13.443C14.4523 13.443 13.333 14.5623 13.333 15.943C13.333 17.3237 14.4523 18.443 15.833 18.443C17.2137 18.443 18.333 17.3237 18.333 15.943C18.333 14.5623 17.2137 13.443 15.833 13.443Z" stroke="white" stroke-width="1.5" stroke-linecap="round" stroke-linejoin="round"/>
<path d="M4.16699 7.60962C2.78628 7.60962 1.66699 8.72891 1.66699 10.1096C1.66699 11.4903 2.78628 12.6096 4.16699 12.6096C5.5477 12.6096 6.66699 11.4903 6.66699 10.1096C6.66699 8.72891 5.5477 7.60962 4.16699 7.60962Z" stroke="white" stroke-width="1.5" stroke-linecap="round" stroke-linejoin="round"/>
<path d="M15.833 1.77628C14.4523 1.77628 13.333 2.89556 13.333 4.27628C13.333 5.65699 14.4523 6.77628 15.833 6.77628C17.2137 6.77628 18.333 5.65699 18.333 4.27628C18.333 2.89556 17.2137 1.77628 15.833 1.77628Z" stroke="white" stroke-width="1.5" stroke-linecap="round" stroke-linejoin="round"/>
<path d="M6.66634 10.1096H12.4997C14.333 10.1096 15.833 10.943 15.833 13.443V6.7763" stroke="white" stroke-width="1.5" stroke-linecap="round" stroke-linejoin="round"/>
</g>
</svg>
