<svg width="24" height="25" viewBox="0 0 24 25" fill="none" xmlns="http://www.w3.org/2000/svg">
<g opacity="0.45">
<path d="M19.5 11.1096C19.5 16.1276 14.0117 19.5123 12.4249 20.386C12.1568 20.5336 11.8432 20.5336 11.5751 20.386C9.98831 19.5123 4.5 16.1276 4.5 11.1096C4.5 6.60962 8.13401 3.60962 12 3.60962C16 3.60962 19.5 6.60962 19.5 11.1096Z" stroke="white"/>
<path d="M8.28603 11.8957L11.7429 15.3525C11.8641 15.4737 11.9247 15.5343 12 15.5343C12.0753 15.5343 12.1359 15.4737 12.2571 15.3525L15.714 11.8957C16.4617 11.1479 16.5778 9.97625 15.9912 9.09634C15.0763 7.72414 13.0373 7.79437 12.2191 9.22626L12.078 9.4732C12.0435 9.53352 11.9565 9.53352 11.922 9.4732L11.7809 9.22626C10.9627 7.79437 8.92365 7.72414 8.00885 9.09634C7.42225 9.97625 7.53826 11.1479 8.28603 11.8957Z" stroke="white"/>
</g>
</svg>
