<svg width="29" height="29" viewBox="0 0 29 29" fill="none" xmlns="http://www.w3.org/2000/svg">
<circle cx="14.5" cy="14.5" r="14.5" fill="black"/>
<path d="M14.5157 7.1825C11.8953 7.1825 9.76572 9.19999 9.76572 11.6825V13.85C9.76572 14.3075 9.55989 15.005 9.31447 15.395L8.40405 16.8275C7.84197 17.7125 8.22989 18.695 9.25905 19.025C12.6711 20.105 16.3524 20.105 19.7645 19.025C20.7224 18.725 21.142 17.6525 20.6195 16.8275L19.7091 15.395C19.4716 15.005 19.2657 14.3075 19.2657 13.85V11.6825C19.2657 9.20749 17.1282 7.1825 14.5157 7.1825Z" stroke="white" stroke-width="0.875" stroke-miterlimit="10" stroke-linecap="round"/>
<path d="M15.9804 7.40002C15.735 7.33252 15.4817 7.28002 15.2204 7.25002C14.4604 7.16002 13.7321 7.21252 13.0513 7.40002C13.2809 6.84502 13.8509 6.45502 14.5159 6.45502C15.1809 6.45502 15.7509 6.84502 15.9804 7.40002Z" stroke="white" stroke-width="0.875" stroke-miterlimit="10" stroke-linecap="round" stroke-linejoin="round"/>
<path d="M16.8909 19.295C16.8909 20.5325 15.8221 21.545 14.5159 21.545C13.8667 21.545 13.265 21.29 12.8375 20.885C12.41 20.48 12.1409 19.91 12.1409 19.295" stroke="white" stroke-width="0.875" stroke-miterlimit="10"/>
</svg>
