<svg width="18" height="18" viewBox="0 0 18 18" fill="none" xmlns="http://www.w3.org/2000/svg">
<g opacity="0.45">
<path d="M17 14.1932C17 14.4817 16.9359 14.7781 16.7997 15.0666C16.6635 15.355 16.4872 15.6274 16.2549 15.8838C15.8623 16.3164 15.4296 16.6289 14.9409 16.8292C14.4602 17.0295 13.9394 17.1337 13.3786 17.1337C12.5613 17.1337 11.688 16.9414 10.7666 16.5488C9.84527 16.1562 8.92389 15.6274 8.01052 14.9624C7.08913 14.2894 6.21582 13.5443 5.38257 12.719C4.55734 11.8858 3.81222 11.0125 3.14722 10.0991C2.49024 9.18573 1.96144 8.27236 1.57687 7.36701C1.19229 6.45364 1 5.58033 1 4.74708C1 4.20226 1.09614 3.68148 1.28843 3.20076C1.48072 2.71202 1.78518 2.26335 2.20981 1.86275C2.72258 1.35799 3.28343 1.10962 3.87631 1.10962C4.10065 1.10962 4.32499 1.15769 4.52529 1.25384C4.7336 1.34998 4.91788 1.4942 5.06209 1.70251L6.92088 4.32244C7.0651 4.52274 7.16925 4.70702 7.24136 4.88328C7.31347 5.05153 7.35353 5.21978 7.35353 5.37201C7.35353 5.5643 7.29745 5.75659 7.18528 5.94087C7.08112 6.12514 6.92889 6.31743 6.7366 6.50972L6.12769 7.14267C6.03956 7.2308 5.9995 7.33496 5.9995 7.46315C5.9995 7.52725 6.00751 7.58333 6.02354 7.64743C6.04757 7.71152 6.07161 7.75959 6.08763 7.80767C6.23185 8.07206 6.48022 8.41658 6.83275 8.8332C7.19329 9.24983 7.57787 9.67447 7.99449 10.0991C8.42714 10.5237 8.84377 10.9163 9.2684 11.2769C9.68503 11.6294 10.0295 11.8698 10.302 12.014C10.342 12.03 10.3901 12.054 10.4462 12.0781C10.5103 12.1021 10.5744 12.1101 10.6465 12.1101C10.7827 12.1101 10.8868 12.062 10.975 11.9739L11.5839 11.373C11.7842 11.1727 11.9765 11.0205 12.1607 10.9243C12.345 10.8122 12.5293 10.7561 12.7296 10.7561C12.8818 10.7561 13.0421 10.7881 13.2183 10.8602C13.3946 10.9324 13.5789 11.0365 13.7792 11.1727L16.4311 13.0555C16.6395 13.1998 16.7837 13.368 16.8718 13.5683C16.9519 13.7686 17 13.9689 17 14.1932Z" stroke="#FCFDFC" stroke-width="1.2018" stroke-miterlimit="10"/>
</g>
</svg>
