<svg width="24" height="25" viewBox="0 0 24 25" fill="none" xmlns="http://www.w3.org/2000/svg">
<g opacity="0.45">
<path d="M13.7009 4.10996C13.8418 4.11016 13.9123 4.11026 13.9561 4.15418C14 4.1981 14 4.26864 14 4.40972V6.60962C14 7.43804 14.6716 8.10962 15.5 8.10962C16.3284 8.10962 17 7.43805 17 6.60962V4.54214C17 4.38653 17 4.30872 17.0509 4.26392C17.1018 4.21913 17.1776 4.22884 17.3291 4.24826C18.4503 4.39202 19.2316 4.68501 19.8281 5.28149C20.9997 6.45307 21 8.33838 21 12.1096C21 15.8809 20.9997 17.7662 19.8281 18.9377C18.6566 20.1093 16.7712 20.1096 13 20.1096H11C7.22876 20.1096 5.34345 20.1093 4.17188 18.9377C3.0003 17.7662 3 15.8809 3 12.1096C3 8.33838 3.0003 6.45307 4.17188 5.28149C4.76836 4.68501 5.54969 4.39202 6.67094 4.24826C6.82244 4.22884 6.89819 4.21913 6.94909 4.26392C7 4.30872 7 4.38653 7 4.54214V6.60962C7 7.43804 7.67158 8.10962 8.5 8.10962C9.32843 8.10962 10 7.43805 10 6.60962V4.40972C10 4.26864 10 4.1981 10.0439 4.15418C10.0877 4.11026 10.1582 4.11016 10.2991 4.10996C10.5252 4.10964 10.7588 4.10962 11 4.10962H13C13.2412 4.10962 13.4748 4.10964 13.7009 4.10996Z" fill="#7E869E" fill-opacity="0.25"/>
<path d="M8.5 2.60962L8.5 6.60962" stroke="white" stroke-linecap="round"/>
<path d="M15.5 2.60962L15.5 6.60962" stroke="white" stroke-linecap="round"/>
<path d="M12 16.1096L12 10.1096" stroke="white" stroke-width="1.2" stroke-linecap="square"/>
<path d="M15 13.1096L9 13.1096" stroke="white" stroke-width="1.2" stroke-linecap="square"/>
</g>
</svg>
