<svg width="26" height="26" viewBox="0 0 26 26" fill="none" xmlns="http://www.w3.org/2000/svg">
<path d="M19.3461 17.924L23.8537 22.4306L22.3645 23.9198L17.8579 19.4122C16.1811 20.7564 14.0955 21.4875 11.9464 21.4844C6.71791 21.4844 2.47449 17.241 2.47449 12.0125C2.47449 6.78401 6.71791 2.54059 11.9464 2.54059C17.1749 2.54059 21.4183 6.78401 21.4183 12.0125C21.4214 14.1616 20.6903 16.2472 19.3461 17.924ZM17.2349 17.1431C18.5706 15.7696 19.3165 13.9284 19.3135 12.0125C19.3135 7.94169 16.0162 4.64546 11.9464 4.64546C7.87559 4.64546 4.57936 7.94169 4.57936 12.0125C4.57936 16.0823 7.87559 19.3796 11.9464 19.3796C13.8623 19.3826 15.7035 18.6367 17.077 17.301L17.2349 17.1431V17.1431Z" fill="white" />
</svg>
