<svg width="26" height="26" viewBox="0 0 26 26" fill="none" xmlns="http://www.w3.org/2000/svg">
<path d="M22.8048 21.4844C22.8048 21.7635 22.6939 22.0312 22.4966 22.2286C22.2992 22.426 22.0315 22.5369 21.7524 22.5369H4.9134C4.63427 22.5369 4.36658 22.426 4.16921 22.2286C3.97184 22.0312 3.86096 21.7635 3.86096 21.4844V10.4233C3.86085 10.2629 3.89739 10.1047 3.9678 9.96056C4.03821 9.81647 4.14062 9.69037 4.2672 9.5919L12.6867 3.04364C12.8714 2.89993 13.0988 2.8219 13.3329 2.8219C13.5669 2.8219 13.7943 2.89993 13.9791 3.04364L22.3986 9.5919C22.5252 9.69037 22.6276 9.81647 22.698 9.96056C22.7684 10.1047 22.8049 10.2629 22.8048 10.4233V21.4844V21.4844ZM20.6999 20.432V10.9369L13.3329 5.20745L5.96583 10.9369V20.432H20.6999ZM8.07071 16.2222H18.5951V18.3271H8.07071V16.2222Z" fill="white"/>
</svg>
