<svg width="367" height="37" viewBox="0 0 367 37" fill="none" xmlns="http://www.w3.org/2000/svg">
<rect y="0.0664062" width="366.581" height="36.852" rx="4.84895" fill="#292929"/>
<path d="M11.6169 23.7947H10.0354L13.5888 13.9204H15.31L18.8634 23.7947H17.282L14.4904 15.714H14.4133L11.6169 23.7947ZM11.882 19.9279H17.012V21.1815H11.882V19.9279ZM21.6152 19.3976V23.7947H20.1736V16.389H21.5574V17.5944H21.649C21.8193 17.2022 22.0861 16.8872 22.4493 16.6494C22.8158 16.4115 23.277 16.2926 23.8331 16.2926C24.3377 16.2926 24.7797 16.3986 25.159 16.6108C25.5382 16.8197 25.8324 17.1315 26.0413 17.5461C26.2502 17.9608 26.3547 18.4735 26.3547 19.0842V23.7947H24.9131V19.2577C24.9131 18.721 24.7733 18.3015 24.4936 17.9994C24.214 17.694 23.8299 17.5413 23.3413 17.5413C23.007 17.5413 22.7097 17.6136 22.4493 17.7583C22.1922 17.9029 21.9881 18.1151 21.837 18.3947C21.6892 18.6711 21.6152 19.0054 21.6152 19.3976ZM28.9341 26.5718C28.7188 26.5718 28.5227 26.5541 28.3459 26.5188C28.1691 26.4866 28.0373 26.4513 27.9506 26.4127L28.2977 25.2315C28.5613 25.3022 28.7959 25.3327 29.0016 25.3231C29.2073 25.3134 29.3889 25.2363 29.5464 25.0916C29.7072 24.947 29.8486 24.7107 29.9707 24.3829L30.1491 23.8911L27.4395 16.389H28.9823L30.8579 22.1361H30.935L32.8105 16.389H34.3582L31.3063 24.7831C31.1648 25.1688 30.9848 25.495 30.7663 25.7618C30.5477 26.0318 30.2873 26.2343 29.9852 26.3693C29.683 26.5043 29.3327 26.5718 28.9341 26.5718ZM41.4613 23.9586C40.992 23.9586 40.5678 23.8718 40.1885 23.6982C39.8092 23.5215 39.5087 23.2659 39.2869 22.9316C39.0683 22.5974 38.959 22.1875 38.959 21.7022C38.959 21.2843 39.0394 20.9404 39.2001 20.6704C39.3608 20.4004 39.5778 20.1867 39.851 20.0292C40.1242 19.8717 40.4295 19.7527 40.767 19.6724C41.1045 19.592 41.4485 19.531 41.7988 19.4892C42.2424 19.4377 42.6024 19.396 42.8788 19.3638C43.1552 19.3285 43.3561 19.2722 43.4815 19.1951C43.6069 19.1179 43.6695 18.9926 43.6695 18.819V18.7852C43.6695 18.3642 43.5506 18.0379 43.3127 17.8065C43.0781 17.5751 42.7277 17.4594 42.2617 17.4594C41.7763 17.4594 41.3938 17.567 41.1142 17.7824C40.8378 17.9945 40.6465 18.2308 40.5404 18.4911L39.1856 18.1826C39.3463 17.7326 39.581 17.3694 39.8896 17.0929C40.2013 16.8133 40.5597 16.6108 40.9647 16.4854C41.3697 16.3569 41.7956 16.2926 42.2424 16.2926C42.5381 16.2926 42.8515 16.3279 43.1826 16.3986C43.5169 16.4661 43.8286 16.5915 44.1179 16.7747C44.4104 16.9579 44.6499 17.2199 44.8363 17.5606C45.0227 17.8981 45.1159 18.3369 45.1159 18.8768V23.7947H43.7081V22.7822H43.6502C43.557 22.9686 43.4172 23.1518 43.2308 23.3318C43.0444 23.5118 42.8049 23.6613 42.5124 23.7802C42.2199 23.8991 41.8695 23.9586 41.4613 23.9586ZM41.7747 22.8015C42.1733 22.8015 42.514 22.7227 42.7969 22.5652C43.0829 22.4077 43.2999 22.202 43.4477 21.9481C43.5988 21.6909 43.6744 21.4161 43.6744 21.1236V20.169C43.6229 20.2204 43.5233 20.2686 43.3754 20.3136C43.2308 20.3554 43.0652 20.3924 42.8788 20.4245C42.6924 20.4534 42.5108 20.4808 42.334 20.5065C42.1572 20.529 42.0094 20.5483 41.8904 20.5643C41.6108 20.5997 41.3553 20.6592 41.1238 20.7427C40.8956 20.8263 40.7124 20.9468 40.5742 21.1043C40.4392 21.2586 40.3717 21.4643 40.3717 21.7215C40.3717 22.0783 40.5035 22.3483 40.767 22.5315C41.0306 22.7115 41.3665 22.8015 41.7747 22.8015ZM47.0361 23.7947V16.389H48.4295V17.5654H48.5066C48.6416 17.1669 48.8795 16.8535 49.2202 16.6253C49.5641 16.3938 49.953 16.2781 50.3869 16.2781C50.4769 16.2781 50.583 16.2813 50.7052 16.2878C50.8305 16.2942 50.9286 16.3022 50.9993 16.3119V17.6908C50.9414 17.6747 50.8386 17.657 50.6907 17.6377C50.5428 17.6152 50.395 17.604 50.2471 17.604C49.9064 17.604 49.6027 17.6763 49.3359 17.821C49.0723 17.9624 48.8634 18.1601 48.7091 18.414C48.5548 18.6647 48.4777 18.9508 48.4777 19.2722V23.7947H47.0361ZM55.1734 23.9441C54.4438 23.9441 53.8154 23.7882 53.2882 23.4765C52.7643 23.1615 52.3593 22.7195 52.0732 22.1506C51.7904 21.5784 51.6489 20.9083 51.6489 20.1401C51.6489 19.3815 51.7904 18.7129 52.0732 18.1344C52.3593 17.5558 52.7579 17.1042 53.2689 16.7795C53.7832 16.4549 54.3843 16.2926 55.0721 16.2926C55.49 16.2926 55.895 16.3617 56.2871 16.4999C56.6793 16.6381 57.0312 16.8551 57.343 17.1508C57.6548 17.4465 57.9007 17.8306 58.0807 18.3031C58.2607 18.7724 58.3507 19.3429 58.3507 20.0147V20.5258H52.4638V19.4458H56.938C56.938 19.0665 56.8609 18.7306 56.7066 18.4381C56.5523 18.1424 56.3354 17.9094 56.0557 17.739C55.7793 17.5686 55.4546 17.4835 55.0818 17.4835C54.6768 17.4835 54.3232 17.5831 54.0211 17.7824C53.7222 17.9785 53.4907 18.2356 53.3268 18.5538C53.1661 18.8688 53.0857 19.2111 53.0857 19.5808V20.4245C53.0857 20.9195 53.1725 21.3406 53.3461 21.6877C53.5229 22.0349 53.7688 22.3 54.0838 22.4833C54.3988 22.6633 54.7668 22.7533 55.1879 22.7533C55.4611 22.7533 55.7102 22.7147 55.9352 22.6375C56.1602 22.5572 56.3546 22.4383 56.5186 22.2808C56.6825 22.1233 56.8078 21.9288 56.8946 21.6974L58.2591 21.9433C58.1498 22.345 57.9537 22.697 57.6709 22.9991C57.3912 23.2981 57.0393 23.5311 56.615 23.6982C56.1939 23.8622 55.7134 23.9441 55.1734 23.9441ZM62.1054 23.9586C61.6361 23.9586 61.2118 23.8718 60.8325 23.6982C60.4532 23.5215 60.1527 23.2659 59.9309 22.9316C59.7123 22.5974 59.6031 22.1875 59.6031 21.7022C59.6031 21.2843 59.6834 20.9404 59.8441 20.6704C60.0048 20.4004 60.2218 20.1867 60.495 20.0292C60.7682 19.8717 61.0736 19.7527 61.4111 19.6724C61.7486 19.592 62.0925 19.531 62.4429 19.4892C62.8864 19.4377 63.2464 19.396 63.5229 19.3638C63.7993 19.3285 64.0002 19.2722 64.1255 19.1951C64.2509 19.1179 64.3136 18.9926 64.3136 18.819V18.7852C64.3136 18.3642 64.1946 18.0379 63.9568 17.8065C63.7221 17.5751 63.3718 17.4594 62.9057 17.4594C62.4204 17.4594 62.0379 17.567 61.7582 17.7824C61.4818 17.9945 61.2905 18.2308 61.1845 18.4911L59.8297 18.1826C59.9904 17.7326 60.225 17.3694 60.5336 17.0929C60.8454 16.8133 61.2038 16.6108 61.6088 16.4854C62.0138 16.3569 62.4396 16.2926 62.8864 16.2926C63.1821 16.2926 63.4955 16.3279 63.8266 16.3986C64.1609 16.4661 64.4727 16.5915 64.762 16.7747C65.0545 16.9579 65.2939 17.2199 65.4803 17.5606C65.6668 17.8981 65.76 18.3369 65.76 18.8768V23.7947H64.3521V22.7822H64.2943C64.2011 22.9686 64.0612 23.1518 63.8748 23.3318C63.6884 23.5118 63.4489 23.6613 63.1564 23.7802C62.8639 23.8991 62.5136 23.9586 62.1054 23.9586ZM62.4188 22.8015C62.8173 22.8015 63.158 22.7227 63.4409 22.5652C63.727 22.4077 63.9439 22.202 64.0918 21.9481C64.2429 21.6909 64.3184 21.4161 64.3184 21.1236V20.169C64.267 20.2204 64.1673 20.2686 64.0195 20.3136C63.8748 20.3554 63.7093 20.3924 63.5229 20.4245C63.3364 20.4534 63.1548 20.4808 62.978 20.5065C62.8013 20.529 62.6534 20.5483 62.5345 20.5643C62.2548 20.5997 61.9993 20.6592 61.7679 20.7427C61.5397 20.8263 61.3564 20.9468 61.2182 21.1043C61.0832 21.2586 61.0157 21.4643 61.0157 21.7215C61.0157 22.0783 61.1475 22.3483 61.4111 22.5315C61.6747 22.7115 62.0105 22.8015 62.4188 22.8015Z" fill="#98A0B4"/>
<path d="M351.064 15.5831L345.245 21.4019L339.427 15.5831" stroke="#4B4B4B" stroke-width="1.93958"/>
</svg>
