<svg width="20" height="20" viewBox="0 0 20 20" fill="none" xmlns="http://www.w3.org/2000/svg">
<path d="M1.75195 5.04589L7.41767 8.25613C9.50641 9.43962 10.3889 9.43962 12.4777 8.25613L18.1434 5.04589" stroke="#ABABAB" stroke-width="1.22936" stroke-linejoin="round"/>
<path d="M1.76488 11.1727C1.81845 13.6852 1.84525 14.9413 2.77229 15.8719C3.69932 16.8025 4.98953 16.8349 7.56995 16.8997C9.16031 16.9397 10.735 16.9397 12.3254 16.8997C14.9058 16.8349 16.196 16.8025 17.1231 15.8719C18.0501 14.9413 18.0769 13.6852 18.1304 11.1727C18.1477 10.3648 18.1477 9.56182 18.1304 8.75396C18.0769 6.24153 18.0501 4.98532 17.1231 4.05475C16.196 3.12419 14.9058 3.09177 12.3254 3.02694C10.735 2.98697 9.16031 2.98697 7.56995 3.02693C4.98953 3.09176 3.69932 3.12417 2.77228 4.05474C1.84524 4.98531 1.81845 6.24153 1.76487 8.75396C1.74764 9.56182 1.74765 10.3648 1.76488 11.1727Z" stroke="#ABABAB" stroke-width="1.22936" stroke-linejoin="round"/>
</svg>
