<svg width="15" height="18" viewBox="0 0 15 18" fill="none" xmlns="http://www.w3.org/2000/svg">
<path d="M7.51237 2.1825C5.44362 2.1825 3.76237 4.19999 3.76237 6.68249V8.84999C3.76237 9.30749 3.59987 10.005 3.40612 10.395L2.68737 11.8275C2.24362 12.7125 2.54987 13.695 3.36237 14.025C6.05612 15.105 8.96237 15.105 11.6561 14.025C12.4124 13.725 12.7436 12.6525 12.3311 11.8275L11.6124 10.395C11.4249 10.005 11.2624 9.30749 11.2624 8.84999V6.68249C11.2624 4.20749 9.57487 2.1825 7.51237 2.1825Z" stroke="#BBBBBB" stroke-width="0.875" stroke-miterlimit="10" stroke-linecap="round"/>
<path d="M8.6687 2.40002C8.47495 2.33252 8.27495 2.28002 8.0687 2.25002C7.4687 2.16002 6.8937 2.21252 6.3562 2.40002C6.53745 1.84502 6.98745 1.45502 7.51245 1.45502C8.03745 1.45502 8.48745 1.84502 8.6687 2.40002Z" stroke="#BBBBBB" stroke-width="0.875" stroke-miterlimit="10" stroke-linecap="round" stroke-linejoin="round"/>
<path d="M9.3877 14.295C9.3877 15.5325 8.54395 16.545 7.5127 16.545C7.0002 16.545 6.52519 16.29 6.18769 15.885C5.85019 15.48 5.6377 14.91 5.6377 14.295" stroke="#BBBBBB" stroke-width="0.875" stroke-miterlimit="10"/>
</svg>
