<svg width="29" height="29" viewBox="0 0 29 29" fill="none" xmlns="http://www.w3.org/2000/svg">
<rect width="29" height="29" rx="14.5" fill="#23273F"/>
<g opacity="0.8">
<path d="M20.875 10.2358C18.5163 10.0021 16.1433 9.88167 13.7775 9.88167C12.375 9.88167 10.9725 9.9525 9.57 10.0942L8.125 10.2358" stroke="white" stroke-width="1.0625" stroke-linecap="round" stroke-linejoin="round"/>
<path d="M12.0208 9.52042L12.1766 8.59251C12.2899 7.91959 12.3749 7.41667 13.572 7.41667H15.4278C16.6249 7.41667 16.717 7.94792 16.8233 8.59959L16.9791 9.52042" stroke="white" stroke-width="1.0625" stroke-linecap="round" stroke-linejoin="round"/>
<path d="M19.3521 12.4742L18.8917 19.6071C18.8138 20.7192 18.75 21.5833 16.7738 21.5833H12.2263C10.25 21.5833 10.1863 20.7192 10.1084 19.6071L9.64795 12.4742" stroke="white" stroke-width="1.0625" stroke-linecap="round" stroke-linejoin="round"/>
<path d="M13.3171 17.6875H15.6759" stroke="white" stroke-width="1.0625" stroke-linecap="round" stroke-linejoin="round"/>
<path d="M12.7292 14.8542H16.2709" stroke="white" stroke-width="1.0625" stroke-linecap="round" stroke-linejoin="round"/>
</g>
</svg>
