<svg width="18" height="19" viewBox="0 0 18 19" fill="none" xmlns="http://www.w3.org/2000/svg">
<path d="M2.20884 9.33202C1.43187 7.97718 1.05671 6.87091 0.8305 5.74951C0.495934 4.091 1.26157 2.4709 2.52992 1.43714C3.06597 1.00023 3.68047 1.14951 3.99746 1.7182L4.71309 3.00206C5.28032 4.01969 5.56394 4.5285 5.50768 5.06794C5.45144 5.60738 5.06894 6.04673 4.30395 6.92544L2.20884 9.33202ZM2.20884 9.33202C3.78151 12.0742 6.24951 14.5436 8.99488 16.1181M8.99488 16.1181C10.3497 16.895 11.456 17.2702 12.5774 17.4964C14.2359 17.831 15.856 17.0653 16.8897 15.797C17.3266 15.261 17.1774 14.6465 16.6087 14.3294L15.3248 13.6138C14.3072 13.0466 13.7984 12.763 13.2589 12.8192C12.7195 12.8754 12.2801 13.2579 11.4015 14.0229L8.99488 16.1181Z" stroke="#ABABAB" stroke-width="1.22936" stroke-linejoin="round"/>
</svg>
