<svg width="22" height="22" viewBox="0 0 22 22" fill="none" xmlns="http://www.w3.org/2000/svg">
<path d="M17.3461 15.924L21.8537 20.4306L20.3645 21.9198L15.8579 17.4122C14.1811 18.7564 12.0955 19.4875 9.94641 19.4844C4.71791 19.4844 0.474487 15.241 0.474487 10.0125C0.474487 4.78401 4.71791 0.540588 9.94641 0.540588C15.1749 0.540588 19.4183 4.78401 19.4183 10.0125C19.4214 12.1616 18.6903 14.2472 17.3461 15.924ZM15.2349 15.1431C16.5706 13.7696 17.3165 11.9284 17.3135 10.0125C17.3135 5.94169 14.0162 2.64546 9.94641 2.64546C5.87559 2.64546 2.57936 5.94169 2.57936 10.0125C2.57936 14.0823 5.87559 17.3796 9.94641 17.3796C11.8623 17.3826 13.7035 16.6367 15.077 15.301L15.2349 15.1431V15.1431Z" fill="white" />
</svg>
